<svg xmlns="http://www.w3.org/2000/svg" style="display: none;">

  <!-- Facebook -->
  <symbol id="icon-facebook" viewBox="0 0 497.804 497.804">
    <title>Мы в Facebook</title>
    <path d="M248.9 0C111.437 0 0 111.437 0 248.9s111.437 248.9 248.9 248.9c1.781 0 3.554-.03 5.326-.067v-164.1H199.1v-68.9h55.124v-41.344c0-56.764 32.041-96.467 82.687-96.467h55.124v68.9h-27.558q-41.3 0-41.343 41.343v27.562h68.9l-13.781 68.9h-55.119v152.918C424.342 454.963 497.8 360.513 497.8 248.9 497.8 111.437 386.367 0 248.9 0z"/>
  </symbol>

  <!-- Twitter -->
  <symbol id="icon-twitter" viewBox="0 0 497.804 497.804">
    <title>Мы в Twitter</title>
    <path d="M248.9 0C111.437 0 0 111.437 0 248.9s111.437 248.9 248.9 248.9 248.9-111.433 248.9-248.9S386.367 0 248.9 0zm121.17 186.75q.177 4.027.173 8.1c0 82.613-62.875 177.87-177.87 177.87a176.912 176.912 0 0 1-95.832-28.088 126.152 126.152 0 0 0 92.559-25.89 62.583 62.583 0 0 1-58.4-43.416 61.944 61.944 0 0 0 11.765 1.126 62.839 62.839 0 0 0 16.472-2.19 62.564 62.564 0 0 1-50.152-61.3c0-.266 0-.532.006-.792a62.346 62.346 0 0 0 28.316 7.83 62.593 62.593 0 0 1-19.348-83.467 177.5 177.5 0 0 0 128.862 65.319 62.548 62.548 0 0 1 106.52-57.018 125.134 125.134 0 0 0 39.7-15.179 62.628 62.628 0 0 1-27.488 34.589 124.4 124.4 0 0 0 35.907-9.841 126.582 126.582 0 0 1-31.188 32.347z"/>
  </symbol>

  <!-- Pinterest -->
  <symbol id="icon-pinterest" viewBox="0 0 497.804 497.804">
    <title>Мы в Pinterest</title>
    <path d="M248.9 0C111.437 0 0 111.437 0 248.9s111.437 248.9 248.9 248.9 248.9-111.433 248.9-248.9S386.367 0 248.9 0zm26.354 324.963c-21.188 0-41.113-11.431-47.934-24.44 0 0-11.39 45.2-13.8 53.923-8.488 30.835-33.49 61.684-35.418 64.216a2.613 2.613 0 0 1-4.666-1.139c-.542-3.925-6.909-42.815.583-74.549 3.767-15.932 25.236-106.914 25.236-106.914S193 223.531 193 205.012c0-29.072 16.858-50.781 37.84-50.781 17.833 0 26.457 13.393 26.457 29.449 0 17.956-11.424 44.771-17.318 69.629-4.913 20.824 10.443 37.792 30.972 37.792 37.161 0 62.2-47.748 62.2-104.327 0-42.986-28.948-75.18-81.637-75.18-59.5 0-96.6 44.386-96.6 93.966 0 17.1 5.057 29.161 12.954 38.472 3.63 4.3 4.137 6.017 2.827 10.937-.954 3.63-3.1 12.316-4.007 15.747-1.3 4.975-5.331 6.759-9.825 4.906-27.4-11.177-40.173-41.2-40.173-74.94 0-55.742 47.007-122.571 140.226-122.571 74.912 0 124.2 54.2 124.2 112.4-.002 76.961-42.797 134.452-105.86 134.452z"/>
  </symbol>

  <!-- Instagram -->
  <symbol id="icon-instagram" viewBox="0 0 497.804 497.804">
    <title>Мы в Instagram</title>
    <path d="M247.738 299.407a50.514 50.514 0 1 0-49.36-51.256 50.629 50.629 0 0 0 49.36 51.256z"/>
    <path d="M325.846 258.162a76.173 76.173 0 0 1-10.755 31.078A77.487 77.487 0 0 1 211.1 316.584a75.725 75.725 0 0 1-30.114-30.343c-10.534-19.392-12.217-39.757-6.039-60.89h-23.74v111.36a10.091 10.091 0 0 0 9.9 9.872q87.768.012 175.528 0a10.075 10.075 0 0 0 9.929-9.9q.012-55.272 0-110.551v-.768h-23.8a77.991 77.991 0 0 1 3.082 32.798z"/>
    <path d="M303.422 181.549a10.072 10.072 0 0 0 9.88 6.726q5.676 0 11.359-.008v-.049c4.1 0 8.213.082 12.324-.016a9.995 9.995 0 0 0 9.577-9.945V154.64a10.065 10.065 0 0 0-10.1-10.142h-23.56a10.083 10.083 0 0 0-10.1 10.158c-.008 7.8-.033 15.609.025 23.413a11.43 11.43 0 0 0 .595 3.48z"/>
    <path d="M248.9 0C111.437 0 0 111.437 0 248.9s111.437 248.9 248.9 248.9 248.9-111.433 248.9-248.9S386.367 0 248.9 0zm124.663 348.668c-.18 1.111-.343 2.223-.548 3.342a26.989 26.989 0 0 1-20.495 20.9c-1.283.278-2.582.466-3.882.678H149.166c-.531-.073-1.07-.18-1.594-.245a26.986 26.986 0 0 1-22.637-20.593c-.286-1.259-.466-2.542-.7-3.8V148.91c.074-.466.172-.932.237-1.4a26.889 26.889 0 0 1 20.8-22.6c1.185-.27 2.4-.433 3.6-.654h200.051c.466.082.915.188 1.389.245a26.975 26.975 0 0 1 22.718 21.394c.2 1.087.36 2.19.531 3.277v199.5z"/>
  </symbol>

  <!-- Аватар -->
  <symbol id="icon-avatar" viewBox="0 0 20.032 20">
    <ellipse cx="10.016" cy="6" rx="5" ry="6"/>
    <path d="M19.816 17.1a9.114 9.114 0 0 0-4.8-4.2 2.239 2.239 0 0 0-1.8.1 5.949 5.949 0 0 1-3.2.9 5.949 5.949 0 0 1-3.2-.9 2.25 2.25 0 0 0-1.8 0 9.114 9.114 0 0 0-4.8 4.2 1.974 1.974 0 0 0 1.9 2.8h15.8a2.025 2.025 0 0 0 1.9-2.9z"/>
  </symbol>

  <!-- Крестик -->
  <symbol id="icon-close" viewBox="0 0 384.15 384.15">
    <title>Закрыть</title>
    <path d="M373.575 322.675l-130.6-130.6 130.6-130.6a35.992 35.992 0 0 0-50.9-50.9l-130.6 130.6-130.6-130.6a35.992 35.992 0 0 0-50.9 50.9l130.6 130.6-130.6 130.6a35.992 35.992 0 0 0 50.9 50.9l130.6-130.6 130.6 130.6a35.992 35.992 0 0 0 50.9-50.9z"/>
  </symbol>

  <!-- Зум -->
  <symbol id="icon-zoom" viewBox="0 0 118.783 117.178">
    <title>Увеличить</title>
    <path d="M115.97 100.795L88.661 73.484a48.015 48.015 0 1 0-13.251 13.9l26.984 26.986a9.6 9.6 0 1 0 13.576-13.577zM48 80.441A32.444 32.444 0 1 1 80.439 48 32.443 32.443 0 0 1 48 80.441z"/>
  </symbol>

  <!-- Стрелка назад -->
  <symbol id="icon-arrow-prev" viewBox="0 0 14.891 23.936">
    <title>Назад</title>
    <path d="M.651 10.244L10.237.659a2.267 2.267 0 0 1 3.195 0l.8.8a2.266 2.266 0 0 1 0 3.194l-7.314 7.315 7.315 7.315a2.266 2.266 0 0 1 0 3.194l-.8.8a2.265 2.265 0 0 1-3.195 0L.651 13.69A2.241 2.241 0 0 1 0 11.968a2.248 2.248 0 0 1 .651-1.724z"/>
  </symbol>

  <!-- Стрелка вперед -->
  <symbol id="icon-arrow-next" viewBox="0 0 14.89 23.937">
    <title>Вперед</title>
    <path d="M14.241 10.244L4.655.659a2.267 2.267 0 0 0-3.195 0l-.8.8a2.266 2.266 0 0 0 0 3.194l7.314 7.316-7.315 7.315a2.266 2.266 0 0 0 0 3.194l.8.8a2.265 2.265 0 0 0 3.195 0l9.586-9.587a2.241 2.241 0 0 0 .647-1.723 2.239 2.239 0 0 0-.646-1.724z"/>
  </symbol>

</svg>
